<svg width="133" height="32" viewBox="0 0 133 32" fill="none" xmlns="http://www.w3.org/2000/svg">
<path fill-rule="evenodd" clip-rule="evenodd" d="M15.9023 23.7196C15.8545 23.8979 15.9888 24.0729 16.1733 24.0729H17.7894C17.9739 24.0729 18.1082 23.8979 18.0604 23.7196L17.2524 20.7041C17.1781 20.4268 16.7846 20.4268 16.7103 20.7041L15.9023 23.7196Z" fill="#0364FF"/>
<path fill-rule="evenodd" clip-rule="evenodd" d="M14.2941 25.65C14.1703 26.1118 13.7518 26.433 13.2737 26.433H11.0863C10.3917 26.433 9.88609 25.7741 10.0659 25.1031L14.5531 8.3564C14.6885 7.85126 15.1463 7.5 15.6692 7.5H18.2725C18.7954 7.5 19.2532 7.85126 19.3885 8.3564L23.8758 25.1031C24.0556 25.7741 23.55 26.433 22.8554 26.433H20.668C20.1899 26.433 19.7714 26.1118 19.6476 25.65L17.4651 17.5048C17.3296 16.9991 16.6121 16.9991 16.4766 17.5048L14.2941 25.65Z" fill="#0364FF"/>
<path fill-rule="evenodd" clip-rule="evenodd" d="M25.2964 22.4943C25.1565 23.0163 24.4159 23.0163 24.276 22.4943L22.6469 16.4145C22.6154 16.297 22.6154 16.1732 22.6469 16.0557L24.723 8.30746C24.8506 7.83118 25.2823 7.5 25.7753 7.5H27.8943C28.6107 7.5 29.1321 8.17947 28.9467 8.87139L25.2964 22.4943ZM11.3191 16.4044C11.3506 16.2868 11.3506 16.1631 11.3191 16.0455L9.24572 8.30746C9.1181 7.83118 8.68649 7.5 8.19341 7.5H6.0744C5.35807 7.5 4.8367 8.17947 5.0221 8.87139L8.66963 22.4842C8.8095 23.0062 9.55018 23.0062 9.69005 22.4842L11.3191 16.4044Z" fill="#0364FF"/>
<path fill-rule="evenodd" clip-rule="evenodd" d="M70.0093 24.358C69.1688 24.358 68.3984 24.1829 67.698 23.8328C67.3029 23.6307 66.9595 23.3907 66.668 23.1126C66.4838 22.9368 66.1105 23.0561 66.1105 23.3078V23.6835C66.1105 23.8543 65.969 23.9927 65.7945 23.9927H64.2787C64.1042 23.9927 63.9627 23.8543 63.9627 23.6835V7.95071C63.9627 7.78 64.1042 7.6416 64.2787 7.6416H65.7874C65.9619 7.6416 66.1034 7.77999 66.1034 7.95071V13.4881C66.1034 13.7398 66.4776 13.8597 66.6623 13.6845C66.9561 13.4059 67.3023 13.1654 67.698 12.9631C68.3984 12.6129 69.1688 12.4379 70.0093 12.4379C71.519 12.4379 72.7953 13.0164 73.8381 14.1734C74.912 15.3456 75.4489 16.7538 75.4489 18.3979C75.4489 20.0573 74.912 21.4655 73.8381 22.6225C72.7953 23.7795 71.519 24.358 70.0093 24.358ZM69.6591 22.4398C70.6863 22.4398 71.5501 22.0592 72.2505 21.2981C72.9509 20.5521 73.3011 19.5854 73.3011 18.3979C73.3011 17.2257 72.9509 16.259 72.2505 15.4978C71.5501 14.7366 70.6863 14.3561 69.6591 14.3561C68.6163 14.3561 67.7447 14.7366 67.0444 15.4978C66.3595 16.259 66.0171 17.2257 66.0171 18.3979C66.0171 19.5854 66.3595 20.5597 67.0444 21.3209C67.7447 22.0669 68.6163 22.4398 69.6591 22.4398ZM56.5822 24.358C54.9013 24.358 53.5161 23.7947 52.4266 22.6682C51.3372 21.5416 50.7924 20.1182 50.7924 18.3979C50.7924 16.6929 51.3216 15.2771 52.38 14.1505C53.4383 13.0088 54.7924 12.4379 56.4422 12.4379C58.1386 12.4379 59.4849 12.9783 60.481 14.0592C61.5545 15.19 62.0677 16.8906 62.0005 18.4375C61.9918 18.6358 61.8206 18.7861 61.6177 18.7861H53.3728C53.1615 18.7861 52.9901 18.9572 53.012 19.1628C53.1103 20.0863 53.4755 20.8437 54.1076 21.4351C54.8235 22.1049 55.6795 22.4398 56.6756 22.4398C57.9464 22.4398 58.9627 21.8632 59.7243 20.7098C59.8262 20.5556 60.0288 20.493 60.1974 20.5735L61.4807 21.1858C61.6616 21.2721 61.7341 21.4886 61.6294 21.6567C61.1333 22.4523 60.4781 23.0863 59.6639 23.5588C58.7612 24.0916 57.734 24.358 56.5822 24.358ZM53.2747 16.6097C53.1987 16.8325 53.3781 17.0506 53.6182 17.0506H59.3047C59.5236 17.0506 59.6985 16.8673 59.6541 16.6577C59.5266 16.0558 59.2186 15.5474 58.7301 15.1325C58.1542 14.6149 57.376 14.3561 56.3955 14.3561C55.5861 14.3561 54.8858 14.5996 54.2943 15.0868C53.8255 15.4834 53.4856 15.991 53.2747 16.6097ZM50.134 13.2325C50.2039 13.0204 50.0422 12.8032 49.8144 12.8032H48.3321C48.1832 12.8032 48.0521 12.8992 48.01 13.0389L45.8236 20.2982C45.7359 20.5893 45.3166 20.5954 45.2201 20.3069L42.787 13.0296C42.7419 12.8946 42.6131 12.8032 42.4679 12.8032H40.7363C40.5914 12.8032 40.4628 12.8942 40.4174 13.0288L37.9624 20.3117C37.8653 20.5996 37.4467 20.593 37.3591 20.3023L35.1715 13.0389C35.1294 12.8992 34.9983 12.8032 34.8494 12.8032H33.3204C33.0926 12.8032 32.9309 13.0204 33.0008 13.2325L36.473 23.765C36.5177 23.9007 36.6468 23.9926 36.7925 23.9926H38.4745C38.6203 23.9926 38.7495 23.9006 38.7941 23.7648L41.2445 16.3171C41.3384 16.0316 41.7512 16.0311 41.8459 16.3164L44.3169 23.7656C44.3619 23.901 44.4908 23.9926 44.6363 23.9926H46.3423C46.488 23.9926 46.6171 23.9007 46.6618 23.765L50.134 13.2325ZM116.68 23.3304C117.302 23.8937 118.08 24.1753 119.014 24.1753C119.632 24.1753 120.186 24.1076 120.676 23.9722C120.844 23.926 120.928 23.7492 120.871 23.589L120.412 22.3211C120.351 22.1512 120.154 22.0691 119.978 22.1235C119.931 22.1383 119.882 22.1524 119.831 22.1658C119.676 22.1963 119.512 22.2115 119.341 22.2115C118.967 22.2115 118.633 22.0821 118.337 21.8233C118.041 21.5493 117.894 21.0393 117.894 20.2933V15.0305C117.894 14.8598 118.035 14.7214 118.21 14.7214H120.379C120.554 14.7214 120.695 14.583 120.695 14.4123V13.1124C120.695 12.9416 120.554 12.8032 120.379 12.8032H118.21C118.035 12.8032 117.894 12.6648 117.894 12.4941V7.95071C117.894 7.77999 117.752 7.6416 117.578 7.6416H116.062C115.887 7.6416 115.746 7.77999 115.746 7.95071V12.4941C115.746 12.6648 115.604 12.8032 115.43 12.8032H114.054C113.879 12.8032 113.738 12.9416 113.738 13.1124V14.4123C113.738 14.583 113.879 14.7214 114.054 14.7214H115.43C115.604 14.7214 115.746 14.8598 115.746 15.0305V20.9784C115.761 21.9831 116.073 22.7671 116.68 23.3304ZM86.0054 22.9879C87.0482 22.0745 87.5696 20.9327 87.5696 19.5626C87.5696 18.7253 87.3284 17.9717 86.8459 17.3018C86.6239 16.9833 86.3049 16.5785 85.3693 16.0655C85.1716 15.9571 85.1665 15.6683 85.3534 15.543C86.4729 14.7926 87.0326 13.6563 87.0326 12.3237C87.0326 11.0601 86.5579 10.0325 85.6085 9.2409C84.6436 8.41882 83.4529 8.00778 82.0366 8.00778C80.9004 8.00778 79.9121 8.30464 79.0716 8.89837C78.3227 9.42741 77.7654 10.1015 77.3996 10.9207C77.3238 11.0904 77.4108 11.2843 77.5852 11.3565L78.9124 11.9063C79.1003 11.9842 79.315 11.8906 79.3993 11.7088C79.9222 10.5811 80.8013 10.0173 82.0366 10.0173C82.877 10.0173 83.5541 10.2304 84.0677 10.6567C84.5813 11.083 84.8381 11.6386 84.8381 12.3237C84.8381 13.0697 84.5657 13.6786 84.021 14.1505C83.4763 14.6072 82.7759 14.8356 81.9199 14.8356H81.0614C80.865 14.8356 80.7059 14.9913 80.7059 15.1834V16.4517C80.7059 16.6438 80.865 16.7995 81.0614 16.7995H82.0833C82.986 16.7995 83.7564 17.0659 84.3945 17.5987C85.0482 18.1315 85.3751 18.7862 85.3751 19.5626C85.3751 20.339 85.0638 21.0012 84.4412 21.5492C83.8031 22.0821 83.0482 22.3485 82.1767 22.3485C81.3829 22.3485 80.6981 22.1201 80.1222 21.6634C79.6453 21.2617 79.2811 20.7166 79.0297 20.0281C78.958 19.8316 78.7346 19.7246 78.5377 19.8049L77.2392 20.3341C77.0727 20.402 76.9834 20.5815 77.0418 20.7484C77.4048 21.7862 78.0347 22.6392 78.9316 23.3076C79.8965 24.0079 80.9782 24.358 82.1767 24.358C83.7019 24.358 84.9782 23.9013 86.0054 22.9879ZM91.3808 20.5673C91.3808 19.9584 91.6688 19.4484 92.2446 19.0373C92.8361 18.6263 93.5676 18.4208 94.4392 18.4208C95.5573 18.4208 96.4452 18.6461 97.1027 19.0967C97.1917 19.1577 97.2419 19.2593 97.2363 19.3655C97.1934 20.1782 96.8368 20.8909 96.1668 21.5036C95.4664 22.1582 94.6648 22.4855 93.7621 22.4855C93.124 22.4855 92.5637 22.3028 92.0812 21.9375C91.6143 21.5721 91.3808 21.1154 91.3808 20.5673ZM97.9177 13.6938C96.9995 12.8565 95.7465 12.4379 94.159 12.4379C92.2451 12.4379 90.77 13.0818 89.7338 14.3697C89.6222 14.5083 89.6642 14.7088 89.8169 14.8028L91.1715 15.637C91.3147 15.7252 91.5025 15.6864 91.6082 15.5572C92.2882 14.726 93.1774 14.3104 94.2757 14.3104C95.0695 14.3104 95.7621 14.5692 96.3535 15.0868C96.9487 15.5924 97.1594 16.2 97.2198 16.8863C97.2406 17.1222 96.9773 17.2748 96.7539 17.1836C96.0147 16.8818 95.1264 16.731 94.089 16.731C92.5948 16.731 91.3964 17.0735 90.4937 17.7586C89.6065 18.4436 89.163 19.3647 89.163 20.5217C89.163 21.6178 89.5832 22.5312 90.4237 23.2619C91.2797 23.9927 92.338 24.358 93.5987 24.358C95.0773 24.358 96.2602 23.7186 97.1473 22.4398V23.6835C97.1473 23.8543 97.2888 23.9927 97.4633 23.9927H98.9791C99.1537 23.9927 99.2951 23.8543 99.2951 23.6835V17.0963C99.2951 15.6501 98.836 14.5159 97.9177 13.6938ZM111.756 23.6642C111.756 23.8456 111.606 23.9927 111.421 23.9927H109.944C109.759 23.9927 109.609 23.8456 109.609 23.6642V23.2974C109.609 23.0607 109.242 22.9472 109.07 23.1133C108.799 23.3739 108.473 23.6062 108.091 23.81C107.422 24.1753 106.721 24.358 105.99 24.358C104.589 24.358 103.508 23.9698 102.745 23.1934C101.998 22.4018 101.624 21.2828 101.624 19.8366V13.1317C101.624 12.9503 101.775 12.8032 101.96 12.8032H103.436C103.622 12.8032 103.772 12.9503 103.772 13.1317V19.6996C103.819 21.5264 104.76 22.4398 106.597 22.4398C107.453 22.4398 108.169 22.1049 108.745 21.4351C109.321 20.75 109.609 19.9355 109.609 18.9917V13.1317C109.609 12.9503 109.759 12.8032 109.944 12.8032H111.421C111.606 12.8032 111.756 12.9503 111.756 13.1317V23.6642ZM122.852 7.95071C122.852 7.78 122.994 7.6416 123.168 7.6416H124.684C124.859 7.6416 125 7.77999 125 7.95071V13.4985C125 13.7352 125.365 13.8477 125.536 13.6806C125.802 13.4208 126.122 13.1892 126.494 12.9859C127.179 12.6206 127.887 12.4379 128.619 12.4379C130.019 12.4379 131.093 12.8337 131.84 13.6253C132.603 14.4017 132.984 15.5131 132.984 16.9593V23.6835C132.984 23.8543 132.843 23.9927 132.668 23.9927H131.153C130.978 23.9927 130.837 23.8543 130.837 23.6835V17.3703C130.837 15.3608 129.926 14.3561 128.105 14.3561C127.233 14.3561 126.494 14.7138 125.887 15.4293C125.296 16.1296 125 16.9517 125 17.8956V23.6835C125 23.8543 124.859 23.9927 124.684 23.9927H123.168C122.994 23.9927 122.852 23.8543 122.852 23.6835V7.95071Z" fill="#0F1222"/>
</svg>
